<mxfile host="app.diagrams.net" modified="2023-05-18T06:49:47.943Z" agent="Mozilla/5.0 (Windows NT 10.0; Win64; x64; rv:109.0) Gecko/20100101 Firefox/110.0" version="21.1.1" etag="OWlBRCCokwQMHiUnJuMG" type="github">
  <diagram name="Page-1" id="gm8K-k3pUL2F-xWp-PZe">
    <mxGraphModel>
      <root>
        <mxCell id="0" />
        <mxCell id="1" parent="0" />
      </root>
    </mxGraphModel>
  </diagram>
</mxfile>
